<svg version="1.1" xmlns="http://www.w3.org/2000/svg" viewBox="-2534.646640300327 -992.2560302734375 4904.182802867465 2388.99208984375"><desc>Created with Snap</desc><defs></defs><g><g><g transform="matrix(1.024,0,0,-1.024,0,0)"><path d="M54 0L54 626L272 626Q365 626 365 538L365 88Q365 0 272 0L54 0ZM274 100L274 526Q274 544 268 549Q262 555 244 555L145 555L145 71L244 71Q262 71 268 76Q274 82 274 100ZM547 488L645 488Q739 488 739 399L739 216L542 216L542 100Q542 83 548 77Q554 71 572 71L618 71Q636 71 642 77Q648 83 648 101L648 141L736 141L736 88Q736 0 643 0L547 0Q454 0 454 88L454 399Q454 488 547 488ZM542 388L542 282L650 282L650 388Q650 405 644 411Q639 417 621 417L572 417Q554 417 548 411Q542 405 542 388ZM968 488L1003 488Q1094 488 1094 399L1094 0L1004 0L1004 386Q1004 404 998 409Q992 415 974 415L939 415Q921 415 913 407Q906 399 906 380L906 0L816 0L816 488L906 488L906 449Q919 488 968 488ZM1243 72L1415 72L1415 0L1151 0L1151 72L1320 416L1162 416L1162 488L1413 488L1413 416L1243 72ZM1564 488L1662 488Q1756 488 1756 399L1756 216L1559 216L1559 100Q1559 83 1565 77Q1571 71 1589 71L1635 71Q1653 71 1659 77Q1665 83 1665 101L1665 141L1753 141L1753 88Q1753 0 1660 0L1564 0Q1471 0 1471 88L1471 399Q1471 488 1564 488ZM1559 388L1559 282L1667 282L1667 388Q1667 405 1661 411Q1656 417 1638 417L1589 417Q1571 417 1565 411Q1559 405 1559 388ZM1923 669L1923 0L1833 0L1833 669L1923 669Z" fill="#fa858b" style=""></path></g></g><g transform="matrix(1,0,0,1,7.168,948.224)"><g transform="matrix(1.024,0,0,-1.024,0,0)"><path d="M340 538L340 443L249 443L249 526Q249 544 243 549Q237 555 219 555L168 555Q150 555 144 549Q138 544 138 526L138 99Q138 81 144 75Q150 70 168 70L219 70Q237 70 243 75Q249 81 249 99L249 252L199 252L199 322L340 322L340 88Q340 -1 247 -1L140 -1Q47 -1 47 88L47 538Q47 626 140 626L247 626Q340 626 340 538ZM608 449L608 488L698 488L698 0L608 0L608 39Q595 0 546 0L510 0Q420 0 420 88L420 399Q420 488 510 488L546 488Q595 488 608 449ZM540 73L575 73Q593 73 600 81Q608 89 608 108L608 380Q608 399 600 407Q593 415 575 415L540 415Q522 415 516 409Q510 404 510 386L510 102Q510 84 516 78Q522 73 540 73ZM951 488L951 415L884 415L884 106Q884 88 889 82Q895 77 913 77L951 77L951 0L887 0Q793 0 793 88L793 415L747 415L747 488L793 488L793 571L884 571L884 488L951 488ZM1192 108L1192 488L1282 488L1282 0L1192 0L1192 39Q1179 0 1130 0L1094 0Q1004 0 1004 88L1004 488L1094 488L1094 102Q1094 84 1100 78Q1106 73 1124 73L1159 73Q1177 73 1184 81Q1192 89 1192 108ZM1552 449L1552 488L1642 488L1642 -50Q1642 -138 1548 -138L1381 -138L1381 -67L1522 -67Q1540 -67 1546 -61Q1552 -55 1552 -38L1552 45Q1539 6 1490 6L1454 6Q1364 6 1364 95L1364 399Q1364 488 1454 488L1490 488Q1539 488 1552 449ZM1484 79L1519 79Q1537 79 1544 87Q1552 95 1552 114L1552 380Q1552 399 1544 407Q1537 415 1519 415L1484 415Q1466 415 1460 409Q1454 404 1454 386L1454 108Q1454 91 1460 85Q1466 79 1484 79ZM1917 108L1917 488L2007 488L2007 0L1917 0L1917 39Q1904 0 1855 0L1819 0Q1729 0 1729 88L1729 488L1819 488L1819 102Q1819 84 1825 78Q1831 73 1849 73L1884 73Q1902 73 1909 81Q1917 89 1917 108Z" fill="#fa858b" style=""></path></g></g><g transform="matrix(2.764,0,0,2.764,-2380.2823,1086.7058)"><g transform="matrix(1.024,0,0,-1.024,0,0)"><path d="M54 0L54 626L272 626Q365 626 365 538L365 88Q365 0 272 0L54 0ZM274 100L274 526Q274 544 268 549Q262 555 244 555L145 555L145 71L244 71Q262 71 268 76Q274 82 274 100ZM752 538L752 443L661 443L661 526Q661 544 655 549Q649 555 631 555L580 555Q562 555 556 549Q550 544 550 526L550 99Q550 81 556 75Q562 70 580 70L631 70Q649 70 655 75Q661 81 661 99L661 252L611 252L611 322L752 322L752 88Q752 -1 659 -1L552 -1Q459 -1 459 88L459 538Q459 626 552 626L659 626Q752 626 752 538Z" fill="#fa858b" style=""></path></g></g></g></svg>